<svg width="24" height="24" viewBox="0 0 24 24" fill="none" xmlns="http://www.w3.org/2000/svg">
<path d="M21.9751 15.0755C22.0739 15.2466 22.1259 15.4406 22.1258 15.6382C22.1258 15.8357 22.0737 16.0298 21.9749 16.2008C21.8761 16.3718 21.734 16.5138 21.5629 16.6125C21.3917 16.7112 21.1976 16.7631 21.0001 16.763C20.8021 16.7651 20.6072 16.714 20.4357 16.615C20.2642 16.5161 20.1224 16.3729 20.0251 16.2005L18.497 13.5567C17.6364 14.0953 16.71 14.5207 15.7407 14.8224L16.2282 17.5786C16.2552 17.724 16.253 17.8733 16.2217 18.0178C16.1905 18.1623 16.1308 18.2992 16.0462 18.4204C15.9616 18.5417 15.8537 18.6449 15.7288 18.7241C15.604 18.8033 15.4646 18.8569 15.3189 18.8817L15.122 18.9005C14.858 18.9002 14.6025 18.807 14.4003 18.6373C14.1981 18.4677 14.0619 18.2323 14.0157 17.9724L13.5376 15.2817C13.0278 15.3471 12.5141 15.3784 12.0001 15.3755C11.4831 15.3734 10.9667 15.3421 10.4532 15.2817L9.9751 17.9724C9.9289 18.2323 9.79278 18.4677 9.59054 18.6373C9.3883 18.807 9.13284 18.9002 8.86885 18.9005L8.67198 18.8817C8.52622 18.8569 8.38686 18.8033 8.262 18.7241C8.13714 18.6449 8.02927 18.5417 7.94465 18.4204C7.86003 18.2992 7.80037 18.1623 7.76911 18.0178C7.73786 17.8733 7.73565 17.724 7.7626 17.5786L8.2501 14.8224C7.28377 14.5206 6.36049 14.0952 5.50323 13.5567L3.96573 16.2192C3.86621 16.3897 3.72391 16.5313 3.55292 16.6299C3.38192 16.7286 3.18814 16.7809 2.99073 16.7817C2.79314 16.7833 2.59879 16.7315 2.42823 16.6317C2.30013 16.5579 2.18783 16.4596 2.09776 16.3424C2.00769 16.2251 1.94161 16.0913 1.9033 15.9485C1.86499 15.8057 1.8552 15.6567 1.87449 15.5102C1.89378 15.3636 1.94178 15.2223 2.01573 15.0942L3.69385 12.188C3.12599 11.6835 2.60221 11.1315 2.12823 10.538C2.02467 10.4249 1.94533 10.2918 1.89509 10.1469C1.84485 10.002 1.82476 9.84833 1.83607 9.69539C1.84737 9.54244 1.88983 9.39342 1.96083 9.25749C2.03183 9.12155 2.12988 9.00157 2.24894 8.90491C2.36801 8.80824 2.50558 8.73695 2.65321 8.6954C2.80083 8.65385 2.9554 8.64292 3.1074 8.66328C3.2594 8.68365 3.40564 8.73488 3.53712 8.81382C3.6686 8.89277 3.78256 8.99777 3.87198 9.12236C5.35323 10.9505 7.95948 13.1255 12.0001 13.1255C16.0407 13.1255 18.647 10.9505 20.1282 9.12236C20.2176 8.99777 20.3316 8.89277 20.4631 8.81382C20.5946 8.73488 20.7408 8.68365 20.8928 8.66328C21.0448 8.64292 21.1994 8.65385 21.347 8.6954C21.4946 8.73695 21.6322 8.80824 21.7513 8.90491C21.8703 9.00157 21.9684 9.12155 22.0394 9.25749C22.1104 9.39342 22.1528 9.54244 22.1641 9.69539C22.1754 9.84833 22.1554 10.002 22.1051 10.1469C22.0549 10.2918 21.9755 10.4249 21.872 10.538C21.3958 11.1325 20.8722 11.6875 20.3064 12.1974L21.9751 15.0755Z" fill="#290202"/>
</svg>
