<svg width="24" height="25" viewBox="0 0 24 25" fill="none" xmlns="http://www.w3.org/2000/svg">
<path d="M18.3187 17.975C18.4236 18.0796 18.5068 18.2037 18.5636 18.3405C18.6204 18.4772 18.6496 18.6238 18.6496 18.7719C18.6496 18.92 18.6204 19.0666 18.5636 19.2033C18.5068 19.3401 18.4236 19.4643 18.3187 19.5688C17.3082 20.5804 16.0413 21.2979 14.654 21.6441C13.2667 21.9904 11.8112 21.9523 10.4439 21.5341C9.07651 21.1159 7.84881 20.3333 6.8925 19.2703C5.93619 18.2072 5.28736 16.9039 5.01562 15.5H3.75C3.45163 15.5 3.16548 15.3815 2.9545 15.1705C2.74353 14.9596 2.625 14.6734 2.625 14.375C2.625 14.0767 2.74353 13.7905 2.9545 13.5795C3.16548 13.3686 3.45163 13.25 3.75 13.25H4.875V11.75H3.75C3.45163 11.75 3.16548 11.6315 2.9545 11.4205C2.74353 11.2096 2.625 10.9234 2.625 10.625C2.625 10.3267 2.74353 10.0405 2.9545 9.82954C3.16548 9.61856 3.45163 9.50004 3.75 9.50004H5.01562C5.28736 8.0962 5.93619 6.79284 6.8925 5.7298C7.84881 4.66675 9.07651 3.88414 10.4439 3.46593C11.8112 3.04772 13.2667 3.0097 14.654 3.35594C16.0413 3.70218 17.3082 4.41962 18.3187 5.43128C18.4234 5.53593 18.5064 5.66017 18.563 5.79689C18.6197 5.93362 18.6488 6.08017 18.6488 6.22816C18.6488 6.37615 18.6197 6.5227 18.563 6.65943C18.5064 6.79615 18.4234 6.92039 18.3187 7.02503C18.2141 7.12968 18.0899 7.21269 17.9531 7.26933C17.8164 7.32596 17.6699 7.35511 17.5219 7.35511C17.3739 7.35511 17.2273 7.32596 17.0906 7.26933C16.9539 7.21269 16.8296 7.12968 16.725 7.02503C16.2053 6.49962 15.5862 6.08308 14.9036 5.79977C14.2211 5.51646 13.489 5.37207 12.75 5.37504C11.5204 5.37715 10.3253 5.78144 9.34689 6.52622C8.36852 7.271 7.66064 8.31538 7.33125 9.50004H12.75C13.0484 9.50004 13.3345 9.61856 13.5455 9.82954C13.7565 10.0405 13.875 10.3267 13.875 10.625C13.875 10.9234 13.7565 11.2096 13.5455 11.4205C13.3345 11.6315 13.0484 11.75 12.75 11.75H7.125V13.25H11.25C11.5484 13.25 11.8345 13.3686 12.0455 13.5795C12.2565 13.7905 12.375 14.0767 12.375 14.375C12.375 14.6734 12.2565 14.9596 12.0455 15.1705C11.8345 15.3815 11.5484 15.5 11.25 15.5H7.33125C7.66064 16.6847 8.36852 17.7291 9.34689 18.4739C10.3253 19.2186 11.5204 19.6229 12.75 19.625C13.489 19.628 14.2211 19.4836 14.9036 19.2003C15.5862 18.917 16.2053 18.5004 16.725 17.975C16.8295 17.8702 16.9537 17.7869 17.0905 17.7302C17.2272 17.6734 17.3738 17.6441 17.5219 17.6441C17.6699 17.6441 17.8165 17.6734 17.9533 17.7302C18.09 17.7869 18.2142 17.8702 18.3187 17.975Z" fill="#290202"/>
</svg>
