<svg width="16" height="17" viewBox="0 0 16 17" fill="none" xmlns="http://www.w3.org/2000/svg">
<path d="M7.99967 15.1663C7.08856 15.1663 6.22745 14.9912 5.41634 14.641C4.60523 14.2912 3.89701 13.8135 3.29167 13.2077C2.6859 12.6023 2.20812 11.8941 1.85834 11.083C1.50812 10.2719 1.33301 9.41079 1.33301 8.49967C1.33301 7.57745 1.50812 6.71367 1.85834 5.90834C2.20812 5.10256 2.6859 4.39701 3.29167 3.79167C3.89701 3.1859 4.60523 2.7079 5.41634 2.35767C6.22745 2.0079 7.08856 1.83301 7.99967 1.83301C8.9219 1.83301 9.78567 2.0079 10.591 2.35767C11.3968 2.7079 12.1023 3.1859 12.7077 3.79167C13.3135 4.39701 13.7912 5.10256 14.141 5.90834C14.4912 6.71367 14.6663 7.57745 14.6663 8.49967V9.46634C14.6663 10.1219 14.4415 10.6801 13.9917 11.141C13.5415 11.6023 12.9886 11.833 12.333 11.833C11.933 11.833 11.5608 11.7441 11.2163 11.5663C10.8719 11.3886 10.5886 11.1552 10.3663 10.8663C10.0663 11.1663 9.71367 11.4026 9.30834 11.575C8.90256 11.747 8.46634 11.833 7.99967 11.833C7.07745 11.833 6.29145 11.5079 5.64167 10.8577C4.99145 10.2079 4.66634 9.4219 4.66634 8.49967C4.66634 7.57745 4.99145 6.79123 5.64167 6.14101C6.29145 5.49123 7.07745 5.16634 7.99967 5.16634C8.9219 5.16634 9.70812 5.49123 10.3583 6.14101C11.0081 6.79123 11.333 7.57745 11.333 8.49967V9.46634C11.333 9.78856 11.433 10.0412 11.633 10.2243C11.833 10.4079 12.0663 10.4997 12.333 10.4997C12.5997 10.4997 12.833 10.4079 13.033 10.2243C13.233 10.0412 13.333 9.78856 13.333 9.46634V8.49967C13.333 7.04412 12.8079 5.79123 11.7577 4.74101C10.7079 3.69123 9.45523 3.16634 7.99967 3.16634C6.54412 3.16634 5.29123 3.69123 4.24101 4.74101C3.19123 5.79123 2.66634 7.04412 2.66634 8.49967C2.66634 9.95523 3.19123 11.2079 4.24101 12.2577C5.29123 13.3079 6.54412 13.833 7.99967 13.833H11.333V15.1663H7.99967ZM7.99967 10.4997C8.55523 10.4997 9.02745 10.3052 9.41634 9.91634C9.80523 9.52745 9.99967 9.05523 9.99967 8.49967C9.99967 7.94412 9.80523 7.4719 9.41634 7.08301C9.02745 6.69412 8.55523 6.49967 7.99967 6.49967C7.44412 6.49967 6.9719 6.69412 6.58301 7.08301C6.19412 7.4719 5.99967 7.94412 5.99967 8.49967C5.99967 9.05523 6.19412 9.52745 6.58301 9.91634C6.9719 10.3052 7.44412 10.4997 7.99967 10.4997Z" fill="white"/>
</svg>
