<svg width="16" height="17" viewBox="0 0 16 17" fill="none" xmlns="http://www.w3.org/2000/svg">
<path d="M7.03583 4.66035L4.7805 2.05701C4.5205 1.75701 4.04383 1.75835 3.74183 2.06101L1.88716 3.91901C1.33516 4.47168 1.17716 5.29235 1.4965 5.95035C3.40424 9.90032 6.58986 13.0904 10.5372 15.0037C11.1945 15.323 12.0145 15.165 12.5665 14.6123L14.4385 12.737C14.7418 12.4337 14.7425 11.9543 14.4398 11.6943L11.8265 9.45101C11.5532 9.21635 11.1285 9.24701 10.8545 9.52168L9.94516 10.4323C9.89861 10.4811 9.83733 10.5133 9.77073 10.5239C9.70413 10.5345 9.63589 10.5229 9.5765 10.491C8.09013 9.63508 6.85716 8.4005 6.00316 6.91301C5.97118 6.85351 5.9596 6.78516 5.9702 6.71845C5.98079 6.65174 6.01298 6.59034 6.06183 6.54368L6.9685 5.63635C7.24316 5.36035 7.27316 4.93368 7.03583 4.65968V4.66035Z" stroke="white" stroke-width="1.2" stroke-linecap="round" stroke-linejoin="round"/>
</svg>
