<svg width="49" height="48" viewBox="0 0 49 48" fill="none" xmlns="http://www.w3.org/2000/svg">
<path d="M6.5 24H24.5V27H6.5V24ZM3.5 16.5H18.5V19.5H3.5V16.5Z" fill="white"/>
<path d="M45.3785 24.909L40.8785 14.409C40.763 14.1391 40.5708 13.9091 40.3258 13.7475C40.0807 13.5859 39.7936 13.4998 39.5 13.5H35V10.5C35 10.1022 34.842 9.72064 34.5607 9.43934C34.2794 9.15804 33.8978 9 33.5 9H9.50001V12H32V30.834C31.3165 31.2309 30.7183 31.7592 30.24 32.3884C29.7617 33.0176 29.4126 33.7352 29.213 34.5H19.787C19.4219 33.086 18.5537 31.8537 17.345 31.0341C16.1363 30.2145 14.6702 29.8638 13.2215 30.0478C11.7728 30.2318 10.4409 30.9379 9.47553 32.0337C8.51015 33.1294 7.97754 34.5396 7.97754 36C7.97754 37.4604 8.51015 38.8706 9.47553 39.9663C10.4409 41.0621 11.7728 41.7682 13.2215 41.9522C14.6702 42.1362 16.1363 41.7855 17.345 40.9659C18.5537 40.1463 19.4219 38.914 19.787 37.5H29.213C29.5393 38.7874 30.2856 39.9292 31.3337 40.7448C32.3818 41.5604 33.6719 42.0032 35 42.0032C36.3281 42.0032 37.6182 41.5604 38.6663 40.7448C39.7145 39.9292 40.4607 38.7874 40.787 37.5H44C44.3978 37.5 44.7794 37.342 45.0607 37.0607C45.342 36.7794 45.5 36.3978 45.5 36V25.5C45.5001 25.2968 45.4587 25.0957 45.3785 24.909ZM14 39C13.4067 39 12.8267 38.8241 12.3333 38.4944C11.84 38.1648 11.4554 37.6962 11.2284 37.1481C11.0013 36.5999 10.9419 35.9967 11.0577 35.4147C11.1734 34.8328 11.4591 34.2982 11.8787 33.8787C12.2983 33.4591 12.8328 33.1734 13.4147 33.0576C13.9967 32.9419 14.5999 33.0013 15.1481 33.2284C15.6962 33.4554 16.1648 33.8399 16.4944 34.3333C16.8241 34.8266 17 35.4067 17 36C16.9992 36.7954 16.6829 37.558 16.1205 38.1204C15.558 38.6829 14.7954 38.9992 14 39ZM35 16.5H38.51L41.726 24H35V16.5ZM35 39C34.4067 39 33.8267 38.8241 33.3333 38.4944C32.84 38.1648 32.4554 37.6962 32.2284 37.1481C32.0013 36.5999 31.9419 35.9967 32.0577 35.4147C32.1734 34.8328 32.4591 34.2982 32.8787 33.8787C33.2983 33.4591 33.8328 33.1734 34.4147 33.0576C34.9967 32.9419 35.5999 33.0013 36.1481 33.2284C36.6962 33.4554 37.1648 33.8399 37.4944 34.3333C37.8241 34.8266 38 35.4067 38 36C37.9992 36.7954 37.6829 37.558 37.1205 38.1204C36.558 38.6829 35.7954 38.9992 35 39ZM42.5 34.5H40.787C40.4566 33.2151 39.7092 32.0763 38.6619 31.2619C37.6146 30.4475 36.3267 30.0037 35 30V27H42.5V34.5Z" fill="white"/>
</svg>
