<svg width="49" height="48" viewBox="0 0 49 48" fill="none" xmlns="http://www.w3.org/2000/svg">
<path d="M41 17.9998C41.0026 15.2189 40.3023 12.4825 38.9642 10.0448C37.6261 7.60703 35.6935 5.54702 33.3461 4.05613C30.9987 2.56523 28.3125 1.69181 25.5372 1.51701C22.7618 1.34221 19.9873 1.87169 17.4714 3.05628C14.9554 4.24087 12.7797 6.04212 11.1463 8.29272C9.51289 10.5433 8.4748 13.1702 8.12847 15.9294C7.78213 18.6886 8.13879 21.4906 9.1653 24.0751C10.1918 26.6596 11.8549 28.9427 14 30.7123V44.9998C13.9985 45.2558 14.0633 45.5078 14.1882 45.7312C14.313 45.9547 14.4937 46.142 14.7125 46.2748C14.9295 46.4112 15.1779 46.4898 15.434 46.5029C15.69 46.516 15.9451 46.4633 16.175 46.3498L24.5 42.1685L32.825 46.3498C33.0379 46.4439 33.2673 46.4949 33.5 46.4998C33.8978 46.4998 34.2794 46.3418 34.5607 46.0605C34.842 45.7792 35 45.3976 35 44.9998V30.7123C36.8765 29.1676 38.3877 27.2266 39.4251 25.0287C40.4625 22.8307 41.0003 20.4303 41 17.9998ZM11 17.9998C11 15.3297 11.7918 12.7197 13.2752 10.4996C14.7586 8.27953 16.867 6.5492 19.3338 5.52742C21.8006 4.50564 24.515 4.23829 27.1337 4.75919C29.7525 5.28009 32.1579 6.56584 34.0459 8.45385C35.9339 10.3419 37.2197 12.7473 37.7406 15.3661C38.2615 17.9848 37.9942 20.6992 36.9724 23.166C35.9506 25.6328 34.2203 27.7412 32.0002 29.2246C29.7801 30.708 27.17 31.4998 24.5 31.4998C20.9211 31.4948 17.4902 30.0709 14.9595 27.5403C12.4289 25.0096 11.005 21.5787 11 17.9998ZM32 42.5811L25.175 39.1498C24.9644 39.0484 24.7337 38.9958 24.5 38.9958C24.2663 38.9958 24.0356 39.0484 23.825 39.1498L17 42.5811V32.6998C19.3229 33.8835 21.8929 34.5006 24.5 34.5006C27.1071 34.5006 29.6771 33.8835 32 32.6998V42.5811ZM24.5 28.4998C26.5767 28.4998 28.6068 27.884 30.3335 26.7302C32.0602 25.5765 33.406 23.9366 34.2007 22.018C34.9955 20.0993 35.2034 17.9881 34.7982 15.9513C34.3931 13.9145 33.3931 12.0436 31.9246 10.5752C30.4562 9.10672 28.5852 8.10669 26.5484 7.70155C24.5116 7.2964 22.4004 7.50434 20.4818 8.29906C18.5632 9.09378 16.9233 10.4396 15.7696 12.1663C14.6158 13.893 14 15.9231 14 17.9998C14 20.7846 15.1062 23.4553 17.0754 25.4244C19.0445 27.3935 21.7152 28.4998 24.5 28.4998ZM24.5 10.4998C25.9834 10.4998 27.4334 10.9397 28.6668 11.7638C29.9001 12.5879 30.8614 13.7592 31.4291 15.1297C31.9967 16.5001 32.1453 18.0081 31.8559 19.463C31.5665 20.9178 30.8522 22.2542 29.8033 23.3031C28.7544 24.352 27.418 25.0663 25.9632 25.3557C24.5083 25.6451 23.0003 25.4966 21.6299 24.9289C20.2594 24.3612 19.0881 23.3999 18.264 22.1666C17.4399 20.9332 17 19.4832 17 17.9998C17.0049 16.0122 17.7967 14.1074 19.2022 12.702C20.6076 11.2965 22.5124 10.5047 24.5 10.4998Z" fill="white"/>
</svg>
