<svg width="48" height="48" viewBox="0 0 48 48" fill="none" xmlns="http://www.w3.org/2000/svg">
<path d="M40.5 17.9998C40.5026 15.2189 39.8023 12.4825 38.4642 10.0448C37.1261 7.60703 35.1935 5.54702 32.8461 4.05613C30.4987 2.56523 27.8125 1.69181 25.0372 1.51701C22.2618 1.34221 19.4873 1.87169 16.9714 3.05628C14.4554 4.24087 12.2797 6.04212 10.6463 8.29272C9.01289 10.5433 7.9748 13.1702 7.62847 15.9294C7.28213 18.6886 7.63879 21.4906 8.6653 24.0751C9.69181 26.6596 11.3549 28.9427 13.5 30.7123V44.9998C13.4985 45.2558 13.5633 45.5078 13.6882 45.7312C13.813 45.9547 13.9937 46.142 14.2125 46.2748C14.4295 46.4112 14.6779 46.4898 14.934 46.5029C15.19 46.516 15.4451 46.4633 15.675 46.3498L24 42.1685L32.325 46.3498C32.5379 46.4439 32.7673 46.4949 33 46.4998C33.3978 46.4998 33.7794 46.3418 34.0607 46.0605C34.342 45.7792 34.5 45.3976 34.5 44.9998V30.7123C36.3765 29.1676 37.8877 27.2266 38.9251 25.0287C39.9625 22.8307 40.5003 20.4303 40.5 17.9998ZM10.5 17.9998C10.5 15.3297 11.2918 12.7197 12.7752 10.4996C14.2586 8.27953 16.367 6.5492 18.8338 5.52742C21.3006 4.50564 24.015 4.23829 26.6337 4.75919C29.2525 5.28009 31.6579 6.56584 33.5459 8.45385C35.4339 10.3419 36.7197 12.7473 37.2406 15.3661C37.7615 17.9848 37.4942 20.6992 36.4724 23.166C35.4506 25.6328 33.7203 27.7412 31.5002 29.2246C29.2801 30.708 26.67 31.4998 24 31.4998C20.4211 31.4948 16.9902 30.0709 14.4595 27.5403C11.9289 25.0096 10.505 21.5787 10.5 17.9998ZM31.5 42.5811L24.675 39.1498C24.4644 39.0484 24.2337 38.9958 24 38.9958C23.7663 38.9958 23.5356 39.0484 23.325 39.1498L16.5 42.5811V32.6998C18.8229 33.8835 21.3929 34.5006 24 34.5006C26.6071 34.5006 29.1771 33.8835 31.5 32.6998V42.5811ZM24 28.4998C26.0767 28.4998 28.1068 27.884 29.8335 26.7302C31.5602 25.5765 32.906 23.9366 33.7007 22.018C34.4955 20.0993 34.7034 17.9881 34.2982 15.9513C33.8931 13.9145 32.8931 12.0436 31.4246 10.5752C29.9562 9.10672 28.0852 8.10669 26.0484 7.70155C24.0116 7.2964 21.9004 7.50434 19.9818 8.29906C18.0632 9.09378 16.4233 10.4396 15.2696 12.1663C14.1158 13.893 13.5 15.9231 13.5 17.9998C13.5 20.7846 14.6062 23.4553 16.5754 25.4244C18.5445 27.3935 21.2152 28.4998 24 28.4998ZM24 10.4998C25.4834 10.4998 26.9334 10.9397 28.1668 11.7638C29.4001 12.5879 30.3614 13.7592 30.9291 15.1297C31.4967 16.5001 31.6453 18.0081 31.3559 19.463C31.0665 20.9178 30.3522 22.2542 29.3033 23.3031C28.2544 24.352 26.918 25.0663 25.4632 25.3557C24.0083 25.6451 22.5003 25.4966 21.1299 24.9289C19.7594 24.3612 18.5881 23.3999 17.764 22.1666C16.9399 20.9332 16.5 19.4832 16.5 17.9998C16.5049 16.0122 17.2967 14.1074 18.7022 12.702C20.1076 11.2965 22.0124 10.5047 24 10.4998Z" fill="#290202"/>
</svg>
