<svg width="190" height="52" viewBox="0 0 190 52" fill="none" xmlns="http://www.w3.org/2000/svg">
<g clip-path="url(#clip0_20_162)">
<path d="M19.5334 2.47168V27.6526H16.1558L3.3943 8.2308V27.6526H0.0341797V2.47168H3.3943L16.2081 21.9454V2.47168H19.5334ZM35.1849 4.70266L26.7933 27.6526H23.3636L33.0261 2.47168H35.2371L35.1849 4.70266ZM42.2186 27.6526L33.8095 4.70266L33.7574 2.47168H35.9684L45.6657 27.6526H42.2186ZM41.7833 18.3308V21.0633H27.542V18.3308H41.7833ZM55.7113 23.8305L63.1802 2.47168H66.8189L57.4349 27.6526H54.8408L55.7113 23.8305ZM48.7299 2.47168L56.1292 23.8305L57.0519 27.6526H54.4578L45.0913 2.47168H48.7299Z" fill="white"/>
<path d="M99.7354 15.1142V24.3323C99.4223 24.7934 98.923 25.3123 98.2377 25.8888C97.5533 26.4537 96.6075 26.9495 95.4004 27.3761C94.2044 27.7911 92.6609 27.9988 90.7689 27.9988C89.2253 27.9988 87.8036 27.7336 86.5036 27.2032C85.2155 26.6612 84.0954 25.8773 83.1438 24.851C82.2033 23.8134 81.4724 22.5567 80.9502 21.0809C80.4391 19.5935 80.1836 17.9102 80.1836 16.0309V14.0765C80.1836 12.1972 80.4042 10.5195 80.8455 9.04378C81.2978 7.56797 81.9597 6.317 82.8303 5.29088C83.7009 4.25324 84.7683 3.46921 86.0334 2.93881C87.2992 2.39693 88.7499 2.12598 90.3863 2.12598C92.3244 2.12598 93.9438 2.46034 95.2436 3.12905C96.5547 3.78622 97.5765 4.69709 98.3075 5.86165C99.051 7.02613 99.526 8.35206 99.7354 9.8394H96.375C96.2243 8.92851 95.9226 8.09838 95.4703 7.34896C95.029 6.59955 94.3961 5.99993 93.5723 5.55032C92.7477 5.08913 91.6863 4.85854 90.3863 4.85854C89.2141 4.85854 88.1979 5.0718 87.3392 5.49845C86.4805 5.92503 85.7726 6.53609 85.2155 7.33162C84.6584 8.12723 84.2402 9.08997 83.9616 10.2199C83.6949 11.3497 83.5612 12.6238 83.5612 14.042V16.0309C83.5612 17.4836 83.7299 18.7807 84.0664 19.9221C84.4148 21.0635 84.908 22.0378 85.5461 22.8449C86.1849 23.6405 86.9448 24.2457 87.8265 24.6608C88.7209 25.0759 89.7073 25.2835 90.7868 25.2835C91.9819 25.2835 92.9513 25.1854 93.6941 24.9894C94.437 24.7819 95.0171 24.5397 95.4354 24.263C95.8528 23.9748 96.1722 23.7038 96.3928 23.4502V17.8122H90.5252V15.1142H99.7354ZM114.69 4.70285L106.299 27.6528H102.868L112.531 2.47186H114.742L114.69 4.70285ZM121.724 27.6528L113.316 4.70285L113.263 2.47186H115.473L125.171 27.6528H121.724ZM121.289 18.331V21.0635H107.047V18.331H121.289ZM135.67 2.47186V27.6528H132.362V2.47186H135.67ZM143.817 2.47186V5.2044H124.231V2.47186H143.817ZM166.607 14.2668V15.8578C166.607 17.7487 166.369 19.4436 165.893 20.9425C165.417 22.4414 164.733 23.7154 163.839 24.7646C162.945 25.8138 161.871 26.6152 160.619 27.1686C159.376 27.722 157.984 27.9988 156.44 27.9988C154.942 27.9988 153.566 27.722 152.313 27.1686C151.071 26.6152 149.992 25.8138 149.075 24.7646C148.17 23.7154 147.468 22.4414 146.969 20.9425C146.47 19.4436 146.22 17.7487 146.22 15.8578V14.2668C146.22 12.3759 146.464 10.6868 146.951 9.19947C147.451 7.70057 148.152 6.42658 149.058 5.37735C149.963 4.31662 151.036 3.5095 152.278 2.95608C153.533 2.40268 154.907 2.12598 156.405 2.12598C157.949 2.12598 159.341 2.40268 160.584 2.95608C161.836 3.5095 162.91 4.31662 163.804 5.37735C164.709 6.42658 165.4 7.70057 165.876 9.19947C166.363 10.6868 166.607 12.3759 166.607 14.2668ZM163.282 15.8578V14.2321C163.282 12.7333 163.126 11.4074 162.812 10.2544C162.51 9.10148 162.063 8.13298 161.471 7.34896C160.879 6.56494 160.154 5.97115 159.295 5.56759C158.447 5.16403 157.485 4.96229 156.405 4.96229C155.36 4.96229 154.415 5.16403 153.566 5.56759C152.731 5.97115 152.012 6.56494 151.408 7.34896C150.816 8.13298 150.358 9.10148 150.033 10.2544C149.707 11.4074 149.545 12.7333 149.545 14.2321V15.8578C149.545 17.3683 149.707 18.7057 150.033 19.8702C150.358 21.0232 150.822 21.9975 151.426 22.7931C152.041 23.577 152.766 24.1708 153.601 24.5744C154.45 24.9779 155.395 25.1797 156.44 25.1797C157.53 25.1797 158.5 24.9779 159.347 24.5744C160.194 24.1708 160.908 23.577 161.488 22.7931C162.081 21.9975 162.527 21.0232 162.829 19.8702C163.13 18.7057 163.282 17.3683 163.282 15.8578ZM171.639 2.47186H180.03C181.934 2.47186 183.541 2.76009 184.853 3.33661C186.176 3.91306 187.18 4.76631 187.864 5.89618C188.561 7.01454 188.909 8.39235 188.909 10.0296C188.909 11.1826 188.671 12.2376 188.196 13.1945C187.732 14.14 187.058 14.947 186.176 15.6157C185.305 16.273 184.261 16.763 183.042 17.0858L182.101 17.449H174.215L174.18 14.7338H180.134C181.341 14.7338 182.346 14.5261 183.146 14.1111C183.947 13.6845 184.551 13.1139 184.957 12.399C185.363 11.6841 185.567 10.8943 185.567 10.0296C185.567 9.06112 185.375 8.21364 184.992 7.48732C184.609 6.76093 184.005 6.20175 183.181 5.8097C182.369 5.40621 181.319 5.2044 180.03 5.2044H174.999V27.6528H171.639V2.47186ZM186.455 27.6528L180.291 16.2383L183.791 16.221L190.041 27.4453V27.6528H186.455Z" fill="white"/>
<path d="M8.22132 47.8709H9.92227C9.83376 48.6574 9.60041 49.3613 9.2224 49.9825C8.84444 50.6037 8.30988 51.0968 7.61889 51.4615C6.92791 51.8205 6.06558 52 5.03201 52C4.27605 52 3.58796 51.8633 2.96784 51.5897C2.35357 51.3161 1.82502 50.9286 1.38204 50.427C0.939045 49.9198 0.596527 49.3128 0.354367 48.6062C0.118103 47.8938 0 47.1015 0 46.2296V44.99C0 44.118 0.118103 43.3287 0.354367 42.622C0.596527 41.9095 0.942049 41.2998 1.39088 40.7925C1.84566 40.2853 2.392 39.8949 3.02987 39.6213C3.66773 39.3478 4.38531 39.211 5.18261 39.211C6.15714 39.211 6.98104 39.3876 7.65433 39.741C8.32763 40.0943 8.85034 40.5845 9.2224 41.2115C9.60041 41.8327 9.83376 42.5536 9.92227 43.3743H8.22132C8.13865 42.793 7.98506 42.2942 7.76065 41.8782C7.53623 41.4565 7.2173 41.1317 6.80385 40.9036C6.39041 40.6757 5.85001 40.5617 5.18261 40.5617C4.60972 40.5617 4.10477 40.6672 3.66773 40.878C3.23653 41.0889 2.87332 41.3881 2.57804 41.7757C2.28865 42.1632 2.07007 42.6277 1.92243 43.1691C1.77478 43.7106 1.70097 44.3117 1.70097 44.9729V46.2296C1.70097 46.8394 1.76594 47.4122 1.89589 47.9479C2.03169 48.4836 2.23547 48.9538 2.50717 49.3584C2.77881 49.7631 3.12433 50.0823 3.54367 50.3159C3.96302 50.5438 4.45914 50.6579 5.03201 50.6579C5.75844 50.6579 6.33728 50.5467 6.76842 50.3245C7.19956 50.1022 7.52438 49.783 7.7429 49.367C7.96737 48.951 8.1268 48.4523 8.22132 47.8709ZM17.6563 50.2475V45.4858C17.6563 45.1211 17.5796 44.8048 17.426 44.5369C17.2784 44.2634 17.054 44.0525 16.7528 43.9043C16.4515 43.7561 16.0794 43.6821 15.6364 43.6821C15.2231 43.6821 14.8597 43.7504 14.5467 43.8872C14.2396 44.024 13.9975 44.2035 13.8204 44.4258C13.6491 44.648 13.5634 44.8874 13.5634 45.1438H11.9244C11.9244 44.8133 12.013 44.4857 12.1902 44.1607C12.3674 43.8359 12.6213 43.5424 12.9522 43.2802C13.2888 43.0123 13.6904 42.8015 14.157 42.6476C14.6295 42.4881 15.1551 42.4083 15.7339 42.4083C16.4308 42.4083 17.045 42.5223 17.5766 42.7502C18.1141 42.9781 18.5334 43.323 18.8346 43.7846C19.1417 44.2406 19.2953 44.8133 19.2953 45.5029V49.8115C19.2953 50.1193 19.3218 50.4471 19.3751 50.7947C19.4341 51.1423 19.5198 51.4415 19.6319 51.6923V51.829H17.9221C17.8394 51.6467 17.7745 51.4044 17.7272 51.1025C17.68 50.7947 17.6563 50.5097 17.6563 50.2475ZM17.9399 46.221L17.9576 47.3324H16.3009C15.8344 47.3324 15.4179 47.3694 15.0518 47.4435C14.6855 47.512 14.3784 47.6173 14.1304 47.7598C13.8823 47.9022 13.6933 48.0818 13.5634 48.2984C13.4335 48.5093 13.3685 48.7572 13.3685 49.0421C13.3685 49.3328 13.4364 49.5978 13.5723 49.8372C13.7081 50.0765 13.9119 50.2675 14.1835 50.4099C14.4611 50.5467 14.8008 50.6151 15.2023 50.6151C15.7044 50.6151 16.1474 50.5125 16.5312 50.3074C16.9151 50.1022 17.2193 49.8514 17.4437 49.5551C17.6741 49.2588 17.7981 48.9708 17.8158 48.6916L18.5157 49.4524C18.4743 49.6919 18.3621 49.9568 18.179 50.2475C17.996 50.5382 17.7508 50.8174 17.4437 51.0853C17.1426 51.3474 16.7822 51.5669 16.3629 51.7436C15.9494 51.9145 15.4829 52 14.9632 52C14.3135 52 13.7436 51.8774 13.2534 51.6324C12.769 51.3874 12.3911 51.0597 12.1194 50.6494C11.8536 50.2333 11.7207 49.7689 11.7207 49.2559C11.7207 48.7601 11.8211 48.324 12.0219 47.9479C12.2227 47.5661 12.5121 47.2497 12.8901 46.999C13.2681 46.7424 13.7228 46.5488 14.2545 46.4176C14.786 46.2866 15.3795 46.221 16.0351 46.221H17.9399ZM23.5123 44.0326V51.829H21.8733V42.5793H23.468L23.5123 44.0326ZM26.5066 42.5279L26.4978 43.9983C26.362 43.9698 26.232 43.9527 26.108 43.9471C25.9899 43.9356 25.8541 43.9299 25.7005 43.9299C25.3225 43.9299 24.9888 43.9869 24.6994 44.1009C24.4101 44.2149 24.1649 44.3745 23.964 44.5796C23.7633 44.7848 23.6038 45.0299 23.4857 45.3149C23.3735 45.5941 23.2997 45.9019 23.2641 46.2381L22.8036 46.4946C22.8036 45.9361 22.8596 45.4117 22.9719 44.9216C23.09 44.4315 23.2702 43.9983 23.5123 43.6222C23.7544 43.2403 24.0616 42.9439 24.4336 42.7332C24.8116 42.5166 25.2605 42.4083 25.7803 42.4083C25.8984 42.4083 26.0342 42.4225 26.1877 42.451C26.3413 42.4737 26.4476 42.4994 26.5066 42.5279ZM33.6031 49.3756C33.6031 49.1476 33.5498 48.9367 33.4432 48.7429C33.3429 48.5435 33.1331 48.364 32.8145 48.2043C32.5014 48.0391 32.0292 47.8966 31.3969 47.777C30.8654 47.6686 30.384 47.5405 29.9529 47.3922C29.5276 47.2441 29.1644 47.0646 28.8632 46.8536C28.5679 46.6428 28.3405 46.3948 28.1811 46.1099C28.0216 45.8249 27.9418 45.4916 27.9418 45.1097C27.9418 44.745 28.0245 44.4001 28.19 44.0752C28.3612 43.7504 28.6004 43.4626 28.9075 43.2118C29.2205 42.9611 29.5956 42.7645 30.0327 42.622C30.4697 42.4795 30.9569 42.4083 31.4944 42.4083C32.2622 42.4083 32.9176 42.5393 33.4613 42.8015C34.0045 43.0636 34.4207 43.4142 34.7104 43.853C34.9995 44.2861 35.1442 44.7678 35.1442 45.2977H33.5055C33.5055 45.0413 33.4257 44.7933 33.2663 44.554C33.1126 44.3089 32.8853 44.1066 32.5842 43.9471C32.2889 43.7875 31.9253 43.7077 31.4944 43.7077C31.0396 43.7077 30.6706 43.776 30.387 43.9128C30.1095 44.0439 29.9056 44.2121 29.7757 44.4172C29.6517 44.6224 29.5897 44.839 29.5897 45.0669C29.5897 45.2379 29.6193 45.3918 29.6783 45.5286C29.7432 45.6597 29.8554 45.7822 30.015 45.8961C30.1744 46.0044 30.3988 46.1071 30.6882 46.204C30.9776 46.3008 31.3468 46.3977 31.7956 46.4946C32.5814 46.6656 33.2277 46.8707 33.7358 47.1101C34.2438 47.3495 34.622 47.643 34.8698 47.9906C35.1175 48.3383 35.2417 48.7601 35.2417 49.2559C35.2417 49.6605 35.1532 50.031 34.9758 50.3672C34.8045 50.7035 34.5539 50.9941 34.2228 51.2392C33.8979 51.4786 33.5084 51.6667 33.0537 51.8034C32.6046 51.9345 32.1 52 31.5386 52C30.6941 52 29.9795 51.8547 29.3948 51.564C28.8101 51.2734 28.3671 50.8973 28.0659 50.4356C27.7647 49.974 27.6141 49.4867 27.6141 48.9737H29.2619C29.2855 49.4069 29.4154 49.7517 29.6517 50.0081C29.8879 50.2589 30.1773 50.4384 30.5199 50.5467C30.8624 50.6494 31.202 50.7006 31.5386 50.7006C31.9878 50.7006 32.3625 50.6436 32.6636 50.5296C32.9709 50.4157 33.2045 50.2589 33.3638 50.0595C33.5232 49.8599 33.6031 49.632 33.6031 49.3756ZM44.3402 51.829H42.7015V41.6047C42.7015 40.9379 42.8251 40.3765 43.0735 39.9205C43.3275 39.4589 43.6904 39.1113 44.1633 38.8775C44.6356 38.6382 45.1968 38.5186 45.846 38.5186C46.0354 38.5186 46.2243 38.5299 46.413 38.5527C46.6081 38.5755 46.7969 38.6097 46.98 38.6553L46.8916 39.9461C46.7674 39.9177 46.6257 39.8977 46.4663 39.8863C46.3127 39.8749 46.159 39.8692 46.006 39.8692C45.6573 39.8692 45.3562 39.9377 45.1021 40.0744C44.8539 40.2055 44.665 40.3993 44.5352 40.6558C44.4053 40.9122 44.3402 41.2285 44.3402 41.6047V51.829ZM46.3779 42.5793V43.7932H41.1866V42.5793H46.3779ZM47.7687 47.3067V47.1101C47.7687 46.4433 47.869 45.8249 48.0698 45.2551C48.2705 44.6794 48.5602 44.1807 48.9384 43.759C49.316 43.3315 49.7736 43.001 50.3111 42.7673C50.8486 42.5279 51.4513 42.4083 52.1186 42.4083C52.7917 42.4083 53.3972 42.5279 53.9347 42.7673C54.4778 43.001 54.9389 43.3315 55.317 43.759C55.7008 44.1807 55.9929 44.6794 56.1936 45.2551C56.3949 45.8249 56.4952 46.4433 56.4952 47.1101V47.3067C56.4952 47.9735 56.3949 48.5919 56.1936 49.1618C55.9929 49.7318 55.7008 50.2304 55.317 50.6579C54.9389 51.0796 54.4812 51.4102 53.9438 51.6495C53.4119 51.8832 52.8098 52 52.1362 52C51.4632 52 50.8577 51.8832 50.3201 51.6495C49.7826 51.4102 49.3223 51.0796 48.9384 50.6579C48.5602 50.2304 48.2705 49.7318 48.0698 49.1618C47.869 48.5919 47.7687 47.9735 47.7687 47.3067ZM49.4079 47.1101V47.3067C49.4079 47.7684 49.464 48.2043 49.5757 48.6147C49.688 49.0194 49.8564 49.3784 50.0809 49.6919C50.3111 50.0054 50.598 50.2532 50.9405 50.4356C51.2829 50.6122 51.6815 50.7006 52.1362 50.7006C52.5853 50.7006 52.9776 50.6122 53.3144 50.4356C53.6569 50.2532 53.9404 50.0054 54.1649 49.6919C54.3894 49.3784 54.5578 49.0194 54.6701 48.6147C54.788 48.2043 54.847 47.7684 54.847 47.3067V47.1101C54.847 46.6541 54.788 46.2239 54.6701 45.8193C54.5578 45.4088 54.3866 45.047 54.1564 44.7335C53.9319 44.4144 53.6483 44.1636 53.306 43.9812C52.9691 43.7989 52.5734 43.7077 52.1186 43.7077C51.6696 43.7077 51.2738 43.7989 50.9313 43.9812C50.5946 44.1636 50.3111 44.4144 50.0809 44.7335C49.8564 45.047 49.688 45.4088 49.5757 45.8193C49.464 46.2239 49.4079 46.6541 49.4079 47.1101ZM60.1892 44.0326V51.829H58.5505V42.5793H60.1449L60.1892 44.0326ZM63.1834 42.5279L63.1749 43.9983C63.0388 43.9698 62.909 43.9527 62.7848 43.9471C62.6668 43.9356 62.5308 43.9299 62.3777 43.9299C61.9995 43.9299 61.6656 43.9869 61.3764 44.1009C61.0872 44.2149 60.8418 44.3745 60.641 44.5796C60.4404 44.7848 60.281 45.0299 60.1625 45.3149C60.0503 45.5941 59.9765 45.9019 59.9414 46.2381L59.4804 46.4946C59.4804 45.9361 59.5365 45.4117 59.6488 44.9216C59.7667 44.4315 59.947 43.9983 60.1892 43.6222C60.4312 43.2403 60.7385 42.9439 61.1105 42.7332C61.4886 42.5166 61.9378 42.4083 62.4571 42.4083C62.5756 42.4083 62.7111 42.4225 62.8648 42.451C63.0184 42.4737 63.1244 42.4994 63.1834 42.5279ZM70.8377 44.0326V51.829H69.1992V42.5793H70.7935L70.8377 44.0326ZM73.8325 42.5279L73.8235 43.9983C73.688 43.9698 73.5576 43.9527 73.434 43.9471C73.3155 43.9356 73.1799 43.9299 73.0263 43.9299C72.6481 43.9299 72.3148 43.9869 72.025 44.1009C71.7359 44.2149 71.4909 44.3745 71.2896 44.5796C71.0889 44.7848 70.9296 45.0299 70.8116 45.3149C70.6994 45.5941 70.6257 45.9019 70.5899 46.2381L70.129 46.4946C70.129 45.9361 70.1851 45.4117 70.2974 44.9216C70.4159 44.4315 70.5957 43.9983 70.8377 43.6222C71.0805 43.2403 71.3872 42.9439 71.7597 42.7332C72.1373 42.5166 72.5863 42.4083 73.1057 42.4083C73.2242 42.4083 73.3597 42.4225 73.5133 42.451C73.667 42.4737 73.7736 42.4994 73.8325 42.5279ZM79.1481 52C78.4808 52 77.8752 51.8918 77.332 51.6752C76.7945 51.4529 76.3307 51.1423 75.9407 50.7434C75.5568 50.3444 75.2619 49.8714 75.055 49.3242C74.8481 48.7771 74.7448 48.1787 74.7448 47.529V47.17C74.7448 46.4176 74.8599 45.748 75.0901 45.161C75.3209 44.5683 75.6339 44.0668 76.0297 43.6563C76.4254 43.246 76.8739 42.9355 77.3762 42.7246C77.878 42.5137 78.398 42.4083 78.9355 42.4083C79.6204 42.4083 80.2112 42.5223 80.7072 42.7502C81.2091 42.9781 81.6195 43.2973 81.9388 43.7077C82.2574 44.1123 82.4938 44.591 82.6476 45.1438C82.8006 45.691 82.8777 46.2894 82.8777 46.9391V47.6487H75.7195V46.3578H81.2386V46.2381C81.2153 45.8277 81.1263 45.4289 80.9732 45.0413C80.8252 44.6538 80.5888 44.3346 80.2644 44.0838C79.9396 43.8331 79.4962 43.7077 78.9355 43.7077C78.5635 43.7077 78.2205 43.7846 77.9076 43.9385C77.5945 44.0867 77.3257 44.3089 77.1012 44.6053C76.8773 44.9017 76.7027 45.2635 76.579 45.691C76.4549 46.1185 76.3925 46.6114 76.3925 47.17V47.529C76.3925 47.9678 76.4549 48.381 76.579 48.7685C76.7089 49.1504 76.8948 49.4867 77.137 49.7773C77.3848 50.0679 77.6829 50.296 78.0316 50.4612C78.386 50.6266 78.7875 50.7092 79.2365 50.7092C79.8154 50.7092 80.3053 50.5952 80.7072 50.3672C81.1087 50.1393 81.4603 49.8343 81.7614 49.4524L82.7535 50.2134C82.5471 50.5154 82.2841 50.8032 81.9654 51.0767C81.6462 51.3503 81.2533 51.5726 80.7866 51.7436C80.3263 51.9145 79.7797 52 79.1481 52ZM86.4299 44.554V51.829H84.7913V42.5793H86.3414L86.4299 44.554ZM86.0403 46.8536L85.3583 46.8281C85.364 46.1954 85.4615 45.6112 85.6508 45.0755C85.8397 44.5341 86.1056 44.0639 86.4481 43.6649C86.7905 43.2661 87.1982 42.9583 87.6705 42.7416C88.149 42.5194 88.6775 42.4083 89.2564 42.4083C89.7287 42.4083 90.1538 42.4709 90.5321 42.5963C90.9102 42.716 91.2317 42.9098 91.4976 43.1777C91.7692 43.4456 91.9762 43.7932 92.1179 44.2206C92.2596 44.6423 92.3305 45.1581 92.3305 45.7679V51.829H90.6823V45.7508C90.6823 45.2664 90.6086 44.8789 90.4612 44.5882C90.3132 44.2919 90.0977 44.0781 89.8143 43.9471C89.5307 43.8103 89.1826 43.7419 88.7693 43.7419C88.3616 43.7419 87.9891 43.8245 87.6529 43.9898C87.3218 44.1551 87.0354 44.383 86.7934 44.6737C86.5569 44.9643 86.3709 45.2977 86.2354 45.6739C86.1056 46.0444 86.0403 46.4376 86.0403 46.8536ZM98.833 42.5793V43.7932H93.6505V42.5793H98.833ZM95.4047 40.3309H97.0435V49.5379C97.0435 49.8514 97.0939 50.088 97.1937 50.2475C97.2945 50.4071 97.4244 50.5125 97.5834 50.5639C97.7434 50.6151 97.9149 50.6407 98.0982 50.6407C98.2339 50.6407 98.3754 50.6294 98.5228 50.6065C98.6759 50.578 98.7922 50.5553 98.8688 50.5382L98.8775 51.829C98.7467 51.869 98.5761 51.906 98.3628 51.9401C98.1573 51.9801 97.9053 52 97.6106 52C97.2092 52 96.8398 51.9231 96.503 51.7692C96.1662 51.6153 95.8975 51.3589 95.6968 50.9998C95.5018 50.635 95.4047 50.145 95.4047 49.5295V40.3309Z" fill="white"/>
<path d="M72.4888 11.7878C73.1529 11.7878 73.7212 11.5528 74.1943 11.0827C74.6667 10.6135 74.9029 10.0492 74.9029 9.38961C74.9029 8.73007 74.6667 8.16536 74.1943 7.69531C73.7212 7.22607 73.1529 6.99143 72.4888 6.99143C71.8247 6.99143 71.2567 7.22607 70.7844 7.69531C70.3111 8.16536 70.0746 8.73007 70.0746 9.38961C70.0746 10.0492 70.3111 10.6135 70.7844 11.0827C71.2567 11.5528 71.8247 11.7878 72.4888 11.7878ZM72.4888 20.6011C74.9431 18.3628 76.7638 16.3292 77.9508 14.5002C79.1378 12.6719 79.7314 11.0484 79.7314 9.62943C79.7314 7.45107 79.0323 5.66726 77.6336 4.27787C76.2356 2.88935 74.5204 2.19506 72.4888 2.19506C70.4568 2.19506 68.7416 2.88935 67.3429 4.27787C65.9451 5.66726 65.2462 7.45107 65.2462 9.62943C65.2462 11.0484 65.8398 12.6719 67.0267 14.5002C68.2137 16.3292 70.0343 18.3628 72.4888 20.6011ZM72.4888 23.7787C69.2498 21.0408 66.8308 18.4976 65.2318 16.1489C63.6319 13.8011 62.832 11.6279 62.832 9.62943C62.832 6.6317 63.8029 4.24348 65.7448 2.46485C67.6858 0.686203 69.9338 -0.203125 72.4888 -0.203125C75.0441 -0.203125 77.2919 0.686203 79.2329 2.46485C81.1746 4.24348 82.1455 6.6317 82.1455 9.62943C82.1455 11.6279 81.3463 13.8011 79.747 16.1489C78.1469 18.4976 75.7275 21.0408 72.4888 23.7787Z" fill="#FE0000"/>
<path d="M72.8603 29.8666C75.3217 29.8666 77.3172 29.2059 77.3172 28.3909C77.3172 27.5757 75.3217 26.915 72.8603 26.915C70.3987 26.915 68.4033 27.5757 68.4033 28.3909C68.4033 29.2059 70.3987 29.8666 72.8603 29.8666Z" fill="#FE0000"/>
</g>
<defs>
<clipPath id="clip0_20_162">
<rect width="190" height="52" fill="white"/>
</clipPath>
</defs>
</svg>
