<svg width="16" height="17" viewBox="0 0 16 17" fill="none" xmlns="http://www.w3.org/2000/svg">
<path d="M12.2125 12.1499C12.2824 12.2195 12.3379 12.3023 12.3758 12.3935C12.4136 12.4847 12.4331 12.5824 12.4331 12.6811C12.4331 12.7798 12.4136 12.8776 12.3758 12.9687C12.3379 13.0599 12.2824 13.1427 12.2125 13.2124C11.5388 13.8868 10.6942 14.3651 9.76934 14.5959C8.84445 14.8268 7.87416 14.8014 6.96258 14.5226C6.051 14.2438 5.23254 13.7221 4.595 13.0134C3.95746 12.3047 3.52491 11.4358 3.34375 10.4999H2.5C2.30109 10.4999 2.11032 10.4208 1.96967 10.2802C1.82902 10.1395 1.75 9.94877 1.75 9.74986C1.75 9.55095 1.82902 9.36018 1.96967 9.21953C2.11032 9.07888 2.30109 8.99986 2.5 8.99986H3.25V7.99986H2.5C2.30109 7.99986 2.11032 7.92084 1.96967 7.78019C1.82902 7.63954 1.75 7.44877 1.75 7.24986C1.75 7.05095 1.82902 6.86018 1.96967 6.71953C2.11032 6.57888 2.30109 6.49986 2.5 6.49986H3.34375C3.52491 5.56397 3.95746 4.69506 4.595 3.98637C5.23254 3.27767 6.051 2.75593 6.96258 2.47713C7.87416 2.19832 8.84445 2.17297 9.76934 2.4038C10.6942 2.63463 11.5388 3.11292 12.2125 3.78736C12.2823 3.85713 12.3376 3.93995 12.3754 4.0311C12.4131 4.12225 12.4326 4.21995 12.4326 4.31861C12.4326 4.41727 12.4131 4.51497 12.3754 4.60612C12.3376 4.69727 12.2823 4.7801 12.2125 4.84986C12.1427 4.91963 12.0599 4.97497 11.9688 5.01272C11.8776 5.05048 11.7799 5.06991 11.6812 5.06991C11.5826 5.06991 11.4849 5.05048 11.3937 5.01272C11.3026 4.97497 11.2198 4.91963 11.15 4.84986C10.8036 4.49958 10.3908 4.22189 9.93576 4.03302C9.48075 3.84415 8.99265 3.74788 8.5 3.74986C7.68027 3.75127 6.88351 4.0208 6.23126 4.51732C5.57901 5.01384 5.10709 5.71009 4.8875 6.49986H8.5C8.69891 6.49986 8.88968 6.57888 9.03033 6.71953C9.17098 6.86018 9.25 7.05095 9.25 7.24986C9.25 7.44877 9.17098 7.63954 9.03033 7.78019C8.88968 7.92084 8.69891 7.99986 8.5 7.99986H4.75V8.99986H7.5C7.69891 8.99986 7.88968 9.07888 8.03033 9.21953C8.17098 9.36018 8.25 9.55095 8.25 9.74986C8.25 9.94877 8.17098 10.1395 8.03033 10.2802C7.88968 10.4208 7.69891 10.4999 7.5 10.4999H4.8875C5.10709 11.2896 5.57901 11.9859 6.23126 12.4824C6.88351 12.9789 7.68027 13.2485 8.5 13.2499C8.99265 13.2518 9.48075 13.1556 9.93576 12.9667C10.3908 12.7778 10.8036 12.5001 11.15 12.1499C11.2197 12.0799 11.3025 12.0245 11.3936 11.9866C11.4848 11.9488 11.5825 11.9293 11.6812 11.9293C11.78 11.9293 11.8777 11.9488 11.9689 11.9866C12.06 12.0245 12.1428 12.0799 12.2125 12.1499Z" fill="#290202"/>
</svg>
