<svg width="24" height="24" viewBox="0 0 24 24" fill="none" xmlns="http://www.w3.org/2000/svg">
<path d="M11.7075 11.5705C12.2376 11.5705 12.6911 11.3829 13.0687 11.0078C13.4458 10.6332 13.6343 10.1828 13.6343 9.65639C13.6343 9.12998 13.4458 8.67926 13.0687 8.30409C12.6911 7.92957 12.2376 7.74229 11.7075 7.74229C11.1774 7.74229 10.7241 7.92957 10.3471 8.30409C9.96942 8.67926 9.78063 9.12998 9.78063 9.65639C9.78063 10.1828 9.96942 10.6332 10.3471 11.0078C10.7241 11.3829 11.1774 11.5705 11.7075 11.5705ZM11.7075 18.6048C13.6664 16.8183 15.1195 15.1951 16.067 13.7354C17.0144 12.2761 17.4881 10.9803 17.4881 9.8478C17.4881 8.10915 16.9302 6.68541 15.8138 5.57648C14.698 4.46824 13.329 3.91409 11.7075 3.91409C10.0857 3.91409 8.7167 4.46824 7.60032 5.57648C6.4847 6.68541 5.92685 8.10915 5.92685 9.8478C5.92685 10.9803 6.4006 12.2761 7.34793 13.7354C8.29534 15.1951 9.74844 16.8183 11.7075 18.6048ZM11.7075 21.141C9.12228 18.9557 7.19156 16.9258 5.91532 15.0513C4.63839 13.1774 4 11.4428 4 9.8478C4 7.45517 4.77487 5.54903 6.32477 4.12943C7.87397 2.70981 9.66821 2 11.7075 2C13.747 2 15.5411 2.70981 17.0903 4.12943C18.64 5.54903 19.415 7.45517 19.415 9.8478C19.415 11.4428 18.777 13.1774 17.5006 15.0513C16.2235 16.9258 14.2925 18.9557 11.7075 21.141Z" fill="#290202"/>
</svg>
