<svg width="17" height="17" viewBox="0 0 17 17" fill="none" xmlns="http://www.w3.org/2000/svg">
<path d="M12.7125 12.1503C12.7824 12.22 12.8379 12.3028 12.8758 12.394C12.9136 12.4851 12.9331 12.5829 12.9331 12.6816C12.9331 12.7803 12.9136 12.878 12.8758 12.9692C12.8379 13.0604 12.7824 13.1432 12.7125 13.2128C12.0388 13.8873 11.1942 14.3656 10.2693 14.5964C9.34445 14.8272 8.37416 14.8019 7.46258 14.5231C6.551 14.2443 5.73254 13.7225 5.095 13.0138C4.45746 12.3051 4.02491 11.4362 3.84375 10.5003H3C2.80109 10.5003 2.61032 10.4213 2.46967 10.2807C2.32902 10.14 2.25 9.94926 2.25 9.75035C2.25 9.55144 2.32902 9.36067 2.46967 9.22002C2.61032 9.07937 2.80109 9.00035 3 9.00035H3.75V8.00035H3C2.80109 8.00035 2.61032 7.92133 2.46967 7.78068C2.32902 7.64003 2.25 7.44926 2.25 7.25035C2.25 7.05144 2.32902 6.86067 2.46967 6.72002C2.61032 6.57937 2.80109 6.50035 3 6.50035H3.84375C4.02491 5.56446 4.45746 4.69555 5.095 3.98686C5.73254 3.27816 6.551 2.75642 7.46258 2.47761C8.37416 2.19881 9.34445 2.17346 10.2693 2.40429C11.1942 2.63511 12.0388 3.11341 12.7125 3.78785C12.7823 3.85761 12.8376 3.94044 12.8754 4.03159C12.9131 4.12274 12.9326 4.22044 12.9326 4.3191C12.9326 4.41776 12.9131 4.51546 12.8754 4.60661C12.8376 4.69776 12.7823 4.78058 12.7125 4.85035C12.6427 4.92011 12.5599 4.97545 12.4688 5.01321C12.3776 5.05097 12.2799 5.0704 12.1812 5.0704C12.0826 5.0704 11.9849 5.05097 11.8937 5.01321C11.8026 4.97545 11.7198 4.92011 11.65 4.85035C11.3036 4.50007 10.8908 4.22238 10.4358 4.03351C9.98075 3.84463 9.49265 3.74837 9 3.75035C8.18027 3.75176 7.38351 4.02128 6.73126 4.5178C6.07901 5.01432 5.60709 5.71058 5.3875 6.50035H9C9.19891 6.50035 9.38968 6.57937 9.53033 6.72002C9.67098 6.86067 9.75 7.05144 9.75 7.25035C9.75 7.44926 9.67098 7.64003 9.53033 7.78068C9.38968 7.92133 9.19891 8.00035 9 8.00035H5.25V9.00035H8C8.19891 9.00035 8.38968 9.07937 8.53033 9.22002C8.67098 9.36067 8.75 9.55144 8.75 9.75035C8.75 9.94926 8.67098 10.14 8.53033 10.2807C8.38968 10.4213 8.19891 10.5003 8 10.5003H5.3875C5.60709 11.2901 6.07901 11.9864 6.73126 12.4829C7.38351 12.9794 8.18027 13.2489 9 13.2503C9.49265 13.2523 9.98075 13.1561 10.4358 12.9672C10.8908 12.7783 11.3036 12.5006 11.65 12.1503C11.7197 12.0804 11.8025 12.025 11.8936 11.9871C11.9848 11.9492 12.0825 11.9298 12.1812 11.9298C12.28 11.9298 12.3777 11.9492 12.4689 11.9871C12.56 12.025 12.6428 12.0804 12.7125 12.1503Z" fill="#290202"/>
</svg>
