<svg width="20" height="21" viewBox="0 0 20 21" fill="none" xmlns="http://www.w3.org/2000/svg">
<path d="M14.7996 2.5H9.19961L3.59961 8.9V16.9C3.59961 17.7836 4.31601 18.5 5.19961 18.5H14.7996C15.6832 18.5 16.3996 17.7836 16.3996 16.9V4.1C16.3996 3.2163 15.6832 2.5 14.7996 2.5ZM13.9996 12.9H11.5996C11.3874 12.9 11.184 12.8157 11.0339 12.6657C10.8839 12.5157 10.7996 12.3122 10.7996 12.1C10.7996 11.034 12.0255 11.3 13.9996 11.3C15.0572 11.3 15.0588 12.9 13.9996 12.9ZM14.7996 9.7H5.19961L9.99961 4.1C13.8285 4.1 14.7996 3.835 14.7996 4.8989V9.7Z" fill="black"/>
</svg>
