<svg width="20" height="21" viewBox="0 0 20 21" fill="none" xmlns="http://www.w3.org/2000/svg">
<path d="M2.5 8.83366V13.8337V8.83366ZM10 4.66699V7.16699V4.66699ZM8.33333 4.66699H11.6667H8.33333ZM4.16667 11.3337H2.5H4.16667ZM5 8.83366H6.66667L8.33333 7.16699H11.1517C11.3064 7.16707 11.458 7.21023 11.5896 7.29162C11.7212 7.37301 11.8275 7.48943 11.8967 7.62783L13.1033 10.0395C13.1725 10.1779 13.2788 10.2943 13.4104 10.3757C13.542 10.4571 13.6936 10.5002 13.8483 10.5003H15V8.83366H16.6667C16.8877 8.83366 17.0996 8.92146 17.2559 9.07774C17.4122 9.23402 17.5 9.44598 17.5 9.66699V14.667C17.5 14.888 17.4122 15.1 17.2559 15.2562C17.0996 15.4125 16.8877 15.5003 16.6667 15.5003H15V13.8337H12.5V15.5003C12.5 15.7213 12.4122 15.9333 12.2559 16.0896C12.0996 16.2459 11.8877 16.3337 11.6667 16.3337H8.77917C8.64201 16.3337 8.50696 16.2998 8.38601 16.2352C8.26507 16.1705 8.16196 16.0769 8.08583 15.9628L6.66667 13.8337H5V8.83366Z" fill="#290202"/>
<path d="M2.5 8.83366V13.8337M10 4.66699V7.16699M8.33333 4.66699H11.6667M4.16667 11.3337H2.5M5 8.83366H6.66667L8.33333 7.16699H11.1517C11.3064 7.16707 11.458 7.21023 11.5896 7.29162C11.7212 7.37301 11.8275 7.48943 11.8967 7.62783L13.1033 10.0395C13.1725 10.1779 13.2788 10.2943 13.4104 10.3757C13.542 10.4571 13.6936 10.5002 13.8483 10.5003H15V8.83366H16.6667C16.8877 8.83366 17.0996 8.92146 17.2559 9.07774C17.4122 9.23402 17.5 9.44598 17.5 9.66699V14.667C17.5 14.888 17.4122 15.1 17.2559 15.2562C17.0996 15.4125 16.8877 15.5003 16.6667 15.5003H15V13.8337H12.5V15.5003C12.5 15.7213 12.4122 15.9333 12.2559 16.0896C12.0996 16.2459 11.8877 16.3337 11.6667 16.3337H8.77917C8.64201 16.3337 8.50696 16.2998 8.38601 16.2352C8.26507 16.1705 8.16196 16.0769 8.08583 15.9628L6.66667 13.8337H5V8.83366Z" stroke="#0B0B0B" stroke-linecap="round" stroke-linejoin="round"/>
</svg>
