<svg width="20" height="21" viewBox="0 0 20 21" fill="none" xmlns="http://www.w3.org/2000/svg">
<path d="M3.03 5.57848C3.01852 5.6141 3.01179 5.65109 3.01 5.68848V10.4885C3.01 10.6476 3.07321 10.8002 3.18574 10.9127C3.29826 11.0253 3.45087 11.0885 3.61 11.0885H9.41V15.2885C9.41 15.3285 9.43 15.3585 9.43 15.3985C9.08222 15.5337 8.79267 15.7863 8.61142 16.1125C8.43017 16.4387 8.36863 16.818 8.43744 17.1847C8.50626 17.5515 8.7011 17.8826 8.98826 18.1209C9.27542 18.3592 9.63684 18.4897 10.01 18.4897C10.3832 18.4897 10.7446 18.3592 11.0317 18.1209C11.3189 17.8826 11.5137 17.5515 11.5826 17.1847C11.6514 16.818 11.5898 16.4387 11.4086 16.1125C11.2273 15.7863 10.9378 15.5337 10.59 15.3985C10.6015 15.3629 10.6082 15.3259 10.61 15.2885V11.0885H15.8V15.2885C15.8 15.3285 15.82 15.3585 15.82 15.3985C15.4722 15.5337 15.1827 15.7863 15.0014 16.1125C14.8202 16.4387 14.7586 16.818 14.8274 17.1847C14.8963 17.5515 15.0911 17.8826 15.3783 18.1209C15.6654 18.3592 16.0268 18.4897 16.4 18.4897C16.7732 18.4897 17.1346 18.3592 17.4217 18.1209C17.7089 17.8826 17.9037 17.5515 17.9726 17.1847C18.0414 16.818 17.9798 16.4387 17.7986 16.1125C17.6173 15.7863 17.3278 15.5337 16.98 15.3985C16.9915 15.3629 16.9982 15.3259 17 15.2885V5.68848C17 5.64848 16.98 5.61848 16.98 5.57848C17.3278 5.44321 17.6173 5.19064 17.7986 4.86446C17.9798 4.53828 18.0414 4.159 17.9726 3.79224C17.9037 3.42549 17.7089 3.09432 17.4217 2.85603C17.1346 2.61773 16.7732 2.4873 16.4 2.4873C16.0268 2.4873 15.6654 2.61773 15.3783 2.85603C15.0911 3.09432 14.8963 3.42549 14.8274 3.79224C14.7586 4.159 14.8202 4.53828 15.0014 4.86446C15.1827 5.19064 15.4722 5.44321 15.82 5.57848C15.8085 5.6141 15.8018 5.65109 15.8 5.68848V9.88848H10.6V5.68848C10.6 5.64848 10.58 5.61848 10.58 5.57848C10.9278 5.44321 11.2173 5.19064 11.3986 4.86446C11.5798 4.53828 11.6414 4.159 11.5726 3.79224C11.5037 3.42549 11.3089 3.09432 11.0217 2.85603C10.7346 2.61773 10.3732 2.4873 10 2.4873C9.62684 2.4873 9.26542 2.61773 8.97826 2.85603C8.6911 3.09432 8.49626 3.42549 8.42744 3.79224C8.35863 4.159 8.42017 4.53828 8.60142 4.86446C8.78267 5.19064 9.07222 5.44321 9.42 5.57848C9.40852 5.6141 9.40179 5.65109 9.4 5.68848V9.88848H4.2V5.68848C4.2 5.64848 4.18 5.61848 4.18 5.57848C4.45146 5.47289 4.68894 5.29521 4.86685 5.06459C5.04476 4.83397 5.15634 4.55916 5.18956 4.26979C5.22278 3.98043 5.17638 3.68748 5.05537 3.42254C4.93435 3.1576 4.74331 2.93072 4.50284 2.76637C4.26238 2.60201 3.98161 2.50641 3.69081 2.48988C3.40001 2.47335 3.11021 2.53652 2.85267 2.67256C2.59513 2.80861 2.37961 3.01237 2.22935 3.26189C2.07909 3.51141 1.99979 3.79721 2 4.08848C2.00239 4.4115 2.1019 4.72634 2.28559 4.99207C2.46928 5.25779 2.72865 5.46211 3.03 5.57848Z" fill="black"/>
</svg>
